<?xml version="1.0" encoding="utf-8"?>
<!-- Generator: Adobe Illustrator 16.0.0, SVG Export Plug-In . SVG Version: 6.00 Build 0)  -->
<!DOCTYPE svg PUBLIC "-//W3C//DTD SVG 1.1//EN" "http://www.w3.org/Graphics/SVG/1.1/DTD/svg11.dtd">
<svg version="1.1" id="Layer_1" xmlns="http://www.w3.org/2000/svg" xmlns:xlink="http://www.w3.org/1999/xlink" x="0px" y="0px"
	 width="600px" height="210px" viewBox="0 0 600 210" style="enable-background:new 0 0 600 210;" xml:space="preserve">
<style type="text/css">
<![CDATA[
	.st0{fill:#E32B50;}
]]>
</style>
<g>
	<path class="st0" d="M95.7,46.5c0.3-0.1,0.8,0.1,1.3,0.4c1.6,0.9,2.8,2.1,3.6,3.6c0.8,1.5,1.1,3.1,1,4.6c-0.1,1.6-0.8,3-2,4.2
		c-1.2,1.2-2.9,2-5.2,2.2c-3.6,0.4-7.2,0.3-10.9-0.4c-3.7-0.7-7.5-1.7-11.4-3c-3.9-1.3-7.9-2.7-11.9-4.2c-4.1-1.5-8.3-2.9-12.6-4
		c-4.3-1.1-8.7-2-13.2-2.5c-4.5-0.5-9.1-0.4-13.9,0.3c-3.4,0.6-6.2,1.9-8.4,4.1C10,54,8.4,56.6,7.3,59.7c-1.1,3.1-1.6,6.4-1.6,10.1
		c0,3.6,0.4,7.2,1.4,10.6c1,3.5,2.4,6.7,4.2,9.6c1.8,3,4.1,5.3,6.9,7.1c2.1,1.3,4.4,2,6.8,2.2c2.4,0.2,4.8-0.1,7.1-0.9
		c2.3-0.8,4.3-2.1,6.1-3.8c1.8-1.7,3.1-3.8,3.9-6.4c0.1-0.2,0.3-0.3,0.8-0.4c0.4-0.1,0.7,0.1,0.7,0.4c-0.4,2.6-1.5,4.9-3.4,6.8
		c-1.9,1.9-4.1,3.4-6.5,4.4s-5,1.6-7.6,1.7c-2.6,0.1-4.8-0.4-6.6-1.5c-3.6-2.3-6.6-5.2-9-8.6c-2.4-3.4-4.1-7.1-5.2-11.1
		c-1.1-4-1.5-8-1.3-12.1c0.2-4.1,1-7.9,2.6-11.5c1.4-3.2,3.3-5.8,5.8-7.6c2.4-1.8,5.3-3.1,8.4-3.9c3.2-0.7,6.5-1,10.1-0.9
		c3.6,0.2,7.3,0.6,11,1.4c3.7,0.8,7.4,1.7,11,2.9c3.6,1.2,7,2.4,10.2,3.6c6.3,2.5,12,4.4,17.1,5.6c5.1,1.3,9.3,1.9,12.6,1.9
		c3.4,0,5.7-0.7,7-2c1.3-1.3,1.3-3.3,0-6c-0.4-0.9-0.8-1.6-1.4-2.2c-0.5-0.6-1.2-1.1-1.9-1.7C95.5,47,95.4,46.6,95.7,46.5z
		 M71.5,58.7c0.3,0.1,0.6,0.4,0.8,0.7c0.2,0.3,0.3,0.7,0.2,1.2c0,0.5-0.2,0.9-0.6,1.4c-0.4,0.5-1.1,1.4-2.1,2.6
		c-1,1.2-2.1,2.7-3.3,4.5c-1.2,1.8-2.5,3.7-3.7,5.8c-1.3,2.1-2.4,4.2-3.2,6.4c-0.3,0.6-0.3,1-0.2,1.1c0.1,0.1,0.5,0.3,1.2,0.4
		c1.5,0.3,3.3,0.4,5.2,0.5c1.9,0.1,3.9,0.1,5.8,0.1c1.9,0,3.7,0,5.3,0c1.6,0,2.8,0,3.6,0c1,0,1.4,0.1,1.3,0.4
		c-0.1,0.3-0.5,0.4-1.4,0.6c-0.8,0.3-2.2,0.4-4,0.6c-1.8,0.1-3.8,0.2-6,0.2C68.1,85,66,85,64,85.1c-2,0-3.7,0.1-4.9,0.1
		c-0.7,0-1.2,0.1-1.5,0.4c-0.3,0.3-0.6,0.8-0.8,1.5c-0.8,2-1.5,4.1-2.3,6.3c-0.8,2.3-1.5,4.5-2.1,6.8c-0.6,2.3-1.1,4.5-1.4,6.6
		c-0.4,2.1-0.5,4.1-0.3,5.8c0,0.4,0.1,0.6,0.2,0.8c0.1,0.1,0.3,0.2,0.4,0.3c0.1,0.1,0.2,0.2,0.3,0.4c0.1,0.2,0.1,0.5,0,0.9
		c-0.4,1.3-1,2.2-1.7,2.5c-0.8,0.3-1.2-0.2-1.3-1.5c-0.2-1.2-0.1-3,0.1-5.3c0.3-2.3,0.7-4.9,1.2-7.6c0.5-2.8,1.2-5.6,2-8.4
		c0.8-2.8,1.6-5.3,2.4-7.5c0.3-0.7,0.1-1.2-0.4-1.4c-0.5-0.3-1.1-0.4-1.6-0.4c-0.4,0-0.7,0-1,0.1c-0.3,0.1-0.6,0.2-0.8,0.3
		c-0.2,0.1-0.4,0.1-0.5,0.1c-0.1,0-0.1-0.2,0-0.4c0.1-0.7,0.5-1.2,1.2-1.6c0.7-0.4,1.8-0.7,3.2-1c0.7-0.2,1.2-0.4,1.6-0.6
		c0.3-0.2,0.7-0.7,1.1-1.6c1-2,2.2-4.2,3.5-6.6c1.3-2.4,2.7-4.7,4.2-7.2c0.6-0.9,0.7-1.3,0.1-1.2c-0.6,0.1-1.3,0.3-2.2,0.7
		c-0.4,0.2-0.8,0.3-1,0.2c-0.2,0-0.3-0.1-0.3-0.2c0-0.2,0.1-0.4,0.2-0.6c0.1-0.2,0.3-0.3,0.6-0.4c1.7-0.8,3.2-1.8,4.8-3.2
		c1.5-1.3,2.7-2.4,3.6-3.2C70.9,58.6,71.2,58.5,71.5,58.7z"/>
	<path class="st0" d="M115.6,90.8c-1.4,1-3,1.6-4.8,1.9c-1.1,0.2-2.7,0.3-4.8,0.4c-2.1,0.1-4.5,0.1-7,0.2c-2.5,0.1-5.1,0.1-7.6,0.1
		c-2.5,0-4.8,0-6.7,0c-0.7,1-1.4,2-2.2,3.2c-0.8,1.2-1.5,2.4-2.2,3.8c-0.7,1.3-1.3,2.7-1.8,4.2c-0.5,1.4-0.8,2.9-0.9,4.4
		c-0.1,1.4,0.1,2.5,0.4,3.4c0.3,0.9,0.8,1.6,1.4,2.1c0.6,0.5,1.3,0.8,2.1,1c0.8,0.2,1.6,0.2,2.4,0.1c2.1-0.3,4.3-0.9,6.7-1.8
		c2.4-0.9,4.4-1.8,6.2-2.8c0.5-0.3,0.9-0.4,1.1-0.1c0.3,0.2,0.1,0.5-0.4,0.8c-0.7,0.5-1.5,1.1-2.5,1.7c-1,0.6-2,1.2-3.2,1.8
		c-1.1,0.6-2.3,1.1-3.6,1.6c-1.2,0.5-2.4,0.8-3.6,1c-1,0.2-2,0.1-3.2-0.3c-1.1-0.4-2.2-1-3.2-1.9c-1-0.8-1.8-1.8-2.4-2.9
		c-0.6-1.1-0.9-2.3-0.9-3.6c0.2-3.5,1.2-7,2.9-10.5c1.7-3.5,3.9-6.8,6.4-9.8c2.5-3,5.2-5.6,7.9-7.8s5.3-3.7,7.5-4.6
		c1.2-0.4,2.3-0.3,3.2,0.1c1,0.5,1.7,1.2,2.2,2.1c0.5,0.9,0.9,2,1,3.1c0.1,1.1-0.1,2.2-0.7,3.2c-1,1.8-2.7,3.3-5.2,4.5
		c-2.5,1.2-5.3,2.1-8.5,2.6c1.7,0,3.5,0,5.3,0c1.8,0,3.6,0,5.3,0c1.7,0,3.2-0.1,4.6-0.1c1.4-0.1,2.7-0.2,3.7-0.3
		c1.3-0.1,2.7-0.5,4.1-1.2c1.4-0.7,2.4-1.4,3.2-2.1c0.3-0.4,0.6-0.6,0.8-0.5c0.2,0.1,0.2,0.4-0.1,0.9C118,89,117,89.8,115.6,90.8z
		 M104.4,81.1c0.1-0.8-0.1-1.4-0.5-1.8c-0.4-0.4-0.9-0.6-1.7-0.6c-0.7,0-1.6,0.3-2.5,0.8c-2.4,1.3-4.7,3.1-7.2,5.3
		c-2.4,2.2-4.7,4.5-6.9,6.8c1.7,0,3.4-0.2,5.2-0.6c1.8-0.4,3.5-0.9,5.1-1.7c1.6-0.7,3-1.6,4.3-2.5c1.3-1,2.3-2,3.1-3.2
		C103.9,82.8,104.3,81.9,104.4,81.1z"/>
	<path class="st0" d="M131,90.5c0.5,0.1,1,0.4,1.4,0.9c0.4,0.4,0.6,0.9,0.6,1.4c-0.1,0.8-0.5,1.5-1.1,2.3c-1,3.1-2.2,6.7-3.7,11.1
		c-1.4,4.3-3.1,9.4-5.1,15.1c9.7-1.7,18.9-2.6,27.6-2.6c1.6,0,3,0,4.2,0.1c1.2,0.1,2.2,0.2,3.1,0.3c0.7,0.1,1.4,0.4,2.1,0.9
		c0.7,0.4,1.4,1,2,1.7c0.6,0.7,1.1,1.4,1.5,2.1c0.4,0.8,0.6,1.6,0.6,2.4c0,0.8-0.2,1.5-0.5,2.1c-0.8,1.6-2.9,3.7-6.2,6.3
		c-0.6,0.5-1.1,0.8-1.4,0.8c-0.1,0-0.2,0-0.2-0.1c0-0.4,0.3-0.8,1-1.2c3.8-3.5,5.6-6.7,5.6-9.5c0-2.3-1.6-3.6-4.7-3.8
		c-0.9-0.1-1.9-0.1-3.1-0.1c-1.2,0-2.5,0-4,0c-5.8,0-11,0.2-15.7,0.5c-4.7,0.3-8.9,0.9-12.6,1.8C103.7,176.4,81,204,54.2,205.7
		c-9.2,0.5-17.6-2.3-25.2-8.3c-7.7-6-11.6-12.8-11.6-20.3c0-2.4,0.5-4.7,1.5-7.2c4.8-11.4,20.1-22.1,45.7-32.3
		c17.4-6.9,35.7-12.2,54.8-15.8c1.5-3.3,3.2-8.5,5.2-15.6c0.3-1.1,0.6-2.1,0.8-3c0.2-0.9,0.5-1.8,0.7-2.5c-1.1,1-2.6,2.2-4.5,3.7
		c-1.9,1.4-4.3,3.2-7.2,5.2c-3.6,2.5-6.8,4.6-9.5,6.3c-2.7,1.6-4.9,2.8-6.8,3.7c-0.5,0.2-1.1,0.3-1.8,0.3c-2.3,0-3.4-1.1-3.4-3.4
		c0-0.9,0.3-1.9,0.9-3c3-6.1,8.2-11.5,15.7-16.2c7.4-4.6,14.4-6.9,20.9-6.9C130.7,90.3,130.9,90.3,131,90.5z M20.2,178.6
		c0,6.7,3.3,12.7,10,17.9c7.1,5.4,15,7.9,23.9,7.5c15.4-0.6,30-12.1,43.9-34.6c4.3-6.9,8.2-14.2,11.7-21.9
		c3.5-7.6,6.7-15.8,9.5-24.3c-23,4.8-43.1,11.2-60.3,19C38,151.9,25.5,162,21.3,172.5C20.5,174.5,20.2,176.5,20.2,178.6z M127.3,95
		C127.3,95,127.2,95,127.3,95l-0.1-0.2c0-0.2,0-0.3,0.1-0.4c0-1.1-0.2-1.7-0.7-1.8c-0.7-0.3-2.2-0.1-4.4,0.5
		c-4.6,1.1-9.3,3.4-13.8,6.9c-4.8,3.8-7.9,7.7-9.3,11.6c-0.1,0.3-0.1,0.6-0.1,0.8c0,0.2,0,0.4,0,0.8c0,2,0.8,3.1,2.3,3.1
		c1.3,0,5.3-2.3,11.7-7c2.6-1.8,4.9-3.5,6.8-5c1.9-1.5,3.5-2.8,4.8-4C126.2,99.1,127.1,97.3,127.3,95z"/>
	<path class="st0" d="M127.9,118.9c-0.1-0.3-0.1-0.6,0.1-1c6.2-9.5,10.4-16.9,12.6-22.1c0.4-1,0.6-1.7,0.6-2.4c0-0.1-0.1-0.5-0.3-1
		c-0.1-0.3-0.1-0.5,0-0.7c0.8-0.3,3.2-1.6,7.2-4c0.1-0.1,0.2-0.2,0.4-0.2c0.4,0,0.6,0.2,0.8,0.5c0.3,0.4,0.2,0.7-0.1,1
		c-2,2.8-3.8,5.2-5.2,7.3c-1.4,2.1-2.5,3.8-3.2,5.2c-0.2,0.4-0.3,0.7-0.3,1c0,0.3,0.3,0.4,1,0.1c0.6-0.3,1-0.5,1.1-0.8
		c2.5-3,5.7-6.1,9.6-9.3c4.1-3.3,7.3-5.4,9.5-6.4c2-0.1,3.4,0.1,4.4,0.6c0.1,0.1,0.1,0.1,0.1,0.2c0,0.2-0.1,0.5-0.3,0.8
		c-0.2,0.4-0.5,0.7-0.8,1c-0.3,0.3-0.6,0.5-0.9,0.7c-0.3,0.2-0.6,0.2-0.8,0c-1.3-0.6-3-0.3-5.2,0.9c-9.4,5.2-17.8,13.9-25.2,26
		c0,0.2-0.3,0.4-0.8,0.7c-0.5,0.2-1.1,0.4-1.7,0.7c-0.6,0.3-1.4,0.7-2.2,1.2C128.2,119.3,128,119.3,127.9,118.9z"/>
	<path class="st0" d="M151.9,117.2c-1.6,0-2.4-1.1-2.4-3.3c0-4.5,3.5-10.3,10.6-17.4c3.2-3.2,6.3-5.9,9.2-7.9c2.9-2,5.5-3.5,8-4.5
		c0.6-0.2,1.2-0.4,1.9-0.5c0.7-0.2,1.4-0.2,2.1-0.2c0.8,0,1.5,0.1,2.3,0.2c0.8,0.2,1.5,0.4,2.3,0.6c1.1,0.1,1.7,0.2,1.8,0.1
		c1.1-0.2,2-0.6,2.5-1.2c0.1-0.1,0.3-0.2,0.6-0.2c0.3,0,0.5,0.2,0.7,0.5c0.2,0.3,0.3,0.5,0.2,0.7c-1.8,2.9-3.7,5.7-5.5,8.4
		s-3.6,5.6-5.3,8.4c-1.3,2.2-2.6,4.8-3.9,7.7c-1.3,2.9-2.4,5.8-3.5,8.8s-2,5.8-2.7,8.4c-0.8,2.7-1.3,4.9-1.5,6.8
		c-0.1,0.3-0.1,0.6-0.1,0.9c0,0.3,0,0.6,0,1c0,2.2,0.7,3.8,2,4.8c1.3,1,3.2,1.6,5.4,1.6c2.3,0,4.5-0.4,6.8-1.1
		c3.4-1.1,7.8-3.9,13.2-8.2c2.6-2.1,4.9-4.3,7-6.5c2.1-2.2,3.9-4.3,5.4-6.3c0.6-0.6,1-1,1.1-1c0.1,0.1,0.1,0.2,0.1,0.3
		c0,0.3-0.1,0.6-0.4,1c-1.5,2.2-3.2,4.5-5.3,6.9c-2.1,2.4-4.5,4.8-7.4,7.3c-2.7,2.2-5.1,3.9-7.2,5.3c-2.1,1.4-4.1,2.4-5.9,3.1
		c-0.9,0.3-1.8,0.6-2.7,0.7c-0.9,0.2-1.8,0.2-2.9,0.2c-1.5,0-2.9-0.2-4.2-0.7c-1.3-0.5-2.4-1.1-3.4-1.8c-1.2-0.7-2.1-1.7-2.5-3
		c-0.5-1.3-0.7-2.8-0.6-4.4c0.1-1.3,0.3-3.1,0.8-5.3c0.5-2.2,1.1-4.6,1.9-7.1s1.6-5,2.5-7.5c0.9-2.5,1.8-4.7,2.7-6.6
		c1.1-2.3,2.1-4.4,3.2-6.4c1-2,2.1-3.8,3.2-5.4c0.4-0.7,0.4-1.1-0.1-1.1c-0.1,0-0.2,0.1-0.3,0.2c-1.5,1.8-3.4,3.8-5.5,5.8
		c-2.1,2-4.6,4.3-7.4,6.7c-5.6,4.7-10.4,8.2-14.4,10.6C153.3,116.9,152.5,117.2,151.9,117.2z M155.2,110.5c0,1.5,0.6,2.3,1.7,2.3
		c0.4,0,0.9-0.2,1.4-0.5c3.6-2.2,7.3-5.2,11.3-9c3.9-3.8,8.2-8.4,12.7-13.8c0.2-0.2,0.3-0.4,0.3-0.7c0-0.7-0.4-1.4-1.2-2
		c-0.8-0.6-1.9-0.9-3.2-0.9c-0.7,0-1.4,0.1-2.2,0.3c-3,0.8-6.8,3.7-11.4,8.7c-2.2,2.4-4,4.7-5.5,7c-1.5,2.2-2.7,4.4-3.6,6.4
		C155.4,109,155.2,109.7,155.2,110.5z"/>
	<path class="st0" d="M223.3,66c-0.9-0.7-1.7-1.3-2.3-1.7c-0.6-0.4-1.2-0.7-1.7-0.9c-1.1-0.3-2.2-0.4-3.3-0.3
		c-1.1,0.1-2.1,0.3-3,0.6c-0.9,0.3-1.3,0.4-1.3,0.1c0-0.2,0.3-0.6,0.8-1c0.4-0.3,1-0.5,1.6-0.9c0.6-0.3,1.3-0.6,2-0.9
		c0.7-0.3,1.3-0.4,2-0.6c0.7-0.1,1.3-0.1,1.9,0c0.3,0.1,0.7,0.3,1.1,0.6c0.4,0.3,0.9,0.5,1.4,0.9c-0.5-5.7-2.1-10.6-4.8-14.7
		c-0.8-1.1-1-1.8-0.6-2.1c1.3,1.1,2.4,2.4,3.2,3.9c0.9,1.4,1.6,3,2.2,4.6c0.6,1.7,1.1,3.4,1.5,5.2c0.4,1.8,0.8,3.6,1.2,5.5
		c0.7,0.6,1.4,1.1,2.1,1.6c0.7,0.5,1.4,0.8,2.1,1.1c1.4,0.4,2.4,0.7,3.1,0.7c0.6,0,1.4-0.3,2.4-0.8c0.7-0.4,1.1-0.4,1.3-0.1
		c0.2,0.3-0.1,0.7-0.9,1.1c-0.8,0.5-1.9,1-3.2,1.6c-1.3,0.5-2.5,0.6-3.5,0.2c-0.9-0.2-1.9-0.7-3-1.6c0.3,2.9,0.5,5.8,0.4,8.9
		c0,3.1-0.3,6.3-0.7,9.8c-0.4,6.2-1.6,11.5-3.6,16c-1.9,4.5-4.5,8.1-7.8,10.8c-4.5,3.7-9.1,4-14,1.1c-1.3-1.1-2.6-2.2-3.8-3.2
		c-2.8-3.2-4.7-7.4-5.6-12.7c-0.5-2.4-0.7-4.6-0.7-6.5c0.1-1.9,0.3-3.7,0.9-5.4c0.9-4.5,2.8-7.9,5.7-10.1c3.6-3.4,7.4-3.7,11.6-1
		c0.4,0.2,0.8,0.5,1.3,0.9c0.5,0.4,1,0.9,1.5,1.4c1.7,2,3.3,4.4,4.8,7.1c1.5,2.7,2.8,5.7,4,9c2.5-7.6,3.6-15.4,3.4-23.3L223.3,66z
		 M198.2,81.9c-1,0.8-1.8,1.6-2.4,2.5c-0.7,0.9-1.3,2-1.8,3.2c-0.7,1.8-1.2,3.7-1.4,5.7c-0.2,2-0.1,4.2,0.4,6.4
		c0.5,2.2,1.1,4.1,1.8,5.9c0.7,1.8,1.6,3.4,2.9,4.8c0.8,1,1.7,1.7,2.6,2.2c0.9,0.5,1.8,0.9,2.7,1c2.5,0.4,5.1-0.6,7.6-3
		c4.9-3.8,7.8-8.8,8.8-15c-1.5-4.3-3.8-8.3-7.1-11.9c-0.9-1.1-1.8-2-2.6-2.7c-0.8-0.7-1.7-1.3-2.6-1.6
		C204.5,78.4,201.4,79.2,198.2,81.9z"/>
	<path class="st0" d="M270.8,94.2c-1.1,1.9-2.1,3.9-3.1,5.9c-1,2-1.9,4-2.6,5.9c-0.8,1.9-1.2,3.5-1.4,4.8c-0.2,1.1-0.2,2,0,2.5
		c0.2,0.5,0.4,0.8,0.7,0.9c0.3,0.1,0.7,0.1,1.2,0c0.5-0.1,0.9-0.3,1.4-0.4c0.4-0.1,1-0.3,1.6-0.6c0.6-0.3,1.1-0.6,1.5-0.8
		c1-0.7,1.6-0.8,1.7-0.2c0.1,0.5-0.2,1.2-1,1.9c-0.6,0.7-1.4,1.4-2.3,2c-0.9,0.6-1.8,1.1-2.6,1.4c-0.4,0.1-0.9,0.1-1.4-0.2
		c-0.6-0.3-1.1-0.6-1.6-1.1c-0.5-0.5-0.9-1-1.2-1.6c-0.4-0.6-0.5-1.2-0.5-1.9c0-1.2,0.1-2.5,0.4-3.8c0.3-1.3,0.7-2.6,1.1-3.9
		c0.4-1.3,0.9-2.5,1.5-3.8c0.5-1.2,1-2.4,1.5-3.5c0.4-1,0.4-1.7,0-2.3c-0.4-0.6-1.1-0.3-2.3,0.8c-1.5,1.5-3.5,3.5-6,5.8
		c-2.5,2.3-4.9,4.6-7.4,6.9c-2.5,2.3-4.8,4.3-6.9,6c-2.1,1.8-3.7,2.8-4.7,3.1c-1.7,0.6-3.1,0.3-4.2-0.8c-1.1-1.1-1.6-2.5-1.4-4.1
		c0.1-1.5,0.5-3.2,1.2-5.1c0.7-1.9,1.5-3.9,2.6-5.9c1-2,2.2-4,3.4-6.1c1.2-2.1,2.5-4,3.8-5.9c1.3-1.8,2.5-3.5,3.6-5
		c1.1-1.5,2.1-2.7,2.9-3.7c0.3-0.4,0.7-0.7,1.3-0.8c0.5-0.2,1-0.2,1.4,0c0.4,0.1,0.6,0.4,0.7,0.8c0.1,0.4-0.2,1-0.8,1.8
		c-1.5,1.8-3,3.9-4.6,6.2c-1.6,2.4-3.2,4.7-4.6,7.2c-1.5,2.4-2.8,4.8-4,7.1c-1.2,2.3-2,4.3-2.4,6c-0.8,2.6-0.7,4.3,0,5
		c0.8,0.7,2,0.7,3.6-0.2c2.5-1.5,5.1-3.5,7.9-6.1c2.8-2.5,5.5-5.1,8.2-7.9c2.7-2.7,5.3-5.4,7.8-8c2.5-2.6,4.7-4.8,6.6-6.5
		c0.6-0.6,1.1-0.8,1.5-0.6c0.4,0.2,0.8,0.6,1.1,1.1c0.3,0.5,0.4,1.1,0.4,1.7c0,0.6,0,1.1-0.2,1.4C272.8,90.7,271.8,92.3,270.8,94.2z
		"/>
	<path class="st0" d="M323.4,93.3c-3.3,5.8-6.7,11.9-10.3,18.4c0.3-0.3,0.7-0.7,1.2-1.2c0.5-0.6,1.2-1.3,2.1-2.2
		c2-2,4.2-4.1,6.5-6.1c2.3-2,4.6-4.1,7.1-6.1c5.9-4.6,9.8-7.1,11.9-7.3c0.3-0.3,1.5-0.8,3.7-1.3c0.4-0.1,0.9,0.1,1.4,0.6
		c0.6,0.5,0.9,1,0.9,1.5c0,0.3,0,0.4-0.1,0.5c-1.1,1.3-2.2,2.9-3.4,4.8c-1.2,1.9-2.5,4-3.8,6.3c-3.1,5.7-4.7,9.6-4.7,11.9
		c0,1.7,0.9,2.5,2.6,2.5c3.1,0,8.2-2.7,15.3-8c0.2-0.1,0.4-0.2,0.5-0.3c0.2-0.1,0.3-0.1,0.3-0.2c0.1,0.1,0.1,0.1,0.1,0.2l0.1,0.1
		l-0.7,0.7c-8.3,6.7-14.3,10.1-17.9,10.1c-1.1,0-2.3-0.6-3.5-1.7c-1.5-1.1-2-2.4-1.7-3.9c1.2-5,4.6-11.2,10.2-18.6
		c0.3-0.3,0.4-0.7,0.4-1.2c0-0.9-0.5-1.3-1.4-1.3c-0.6,0-1.2,0.2-1.9,0.7c-3.6,1.9-8.5,5.9-14.9,12c-5.3,5.2-9.5,9.5-12.3,12.9
		c-0.1-0.3-0.5,0-1.1,0.8c-0.1,0.3-0.3,0.5-0.5,0.5c-0.5,0-0.8-0.5-0.8-1.5c0-0.3,0-0.6,0.1-0.8c2.5-5.4,5.6-11.4,9.1-17.9
		c3.5-6.5,7.6-13.7,12.2-21.6c-0.3-0.1-0.7-0.1-1.2-0.2c-0.5-0.1-1-0.2-1.6-0.3c-0.9-0.2-1.7-0.8-2.4-1.7c-0.7-1-1.1-1.9-1.1-2.8
		c0-0.4,0.1-0.7,0.2-1c0.1-0.3,0.3-0.5,0.5-0.8c3.1-3.3,7.8-5.6,14-7c8.9-13.4,17.8-24.2,26.8-32.3c8.9-8.1,18.1-13.8,27.4-17
		c5-1.8,9.9-2.7,14.8-2.7c8.1,0,15,2.3,20.4,6.9c5.2,4.5,7.8,9.8,7.8,15.9c0,4.7-1.6,9.2-4.9,13.4c-3.5,4.6-8.8,8.6-15.8,11.8
		c-25.6,12-50.8,18-75.6,18c-1.1,0-2.2,0-3.2,0c-1.1,0-2.1-0.1-3.2-0.1C329.9,82,326.7,87.5,323.4,93.3z M334.5,69.3
		c1.2-1.8,2.3-3.7,3.5-5.4c-2.7,0.8-4.9,1.7-6.8,2.9c-1.9,1.2-3.5,2.5-4.7,4c-0.5,0.5-0.8,1.1-0.8,1.8c0,1.1,0.7,1.7,2.1,1.9
		c0.9,0.1,1.6,0.2,2.1,0.3c0.5,0.1,0.9,0.1,1.1,0.1C332.1,73,333.3,71.1,334.5,69.3z M337.3,75.2c1.2,0.1,2.4,0.1,3.7,0.1
		c5.3,0,10.6-0.3,16-1c5.4-0.7,10.9-1.6,16.6-2.9c7.2-1.7,14.1-3.9,20.8-6.5c6.7-2.6,13.1-5.7,19.4-9.4
		c13.2-7.7,19.9-15.8,19.9-24.2c0-5.5-2.7-10.1-8-13.7c-5.3-3.8-11.6-5.7-18.7-5.7c-4.6,0-9.2,0.9-13.6,2.8
		c-10.7,4.5-20.9,11.7-30.7,21.7c-9.8,10-19.3,22.9-28.6,38.7C335,75.1,336.2,75.1,337.3,75.2z"/>
	<path class="st0" d="M392,90.8c-1.4,1-3,1.6-4.8,1.9c-1.1,0.2-2.7,0.3-4.8,0.4c-2.1,0.1-4.5,0.1-7,0.2c-2.5,0.1-5.1,0.1-7.6,0.1
		c-2.5,0-4.8,0-6.7,0c-0.7,1-1.4,2-2.2,3.2c-0.8,1.2-1.5,2.4-2.2,3.8c-0.7,1.3-1.3,2.7-1.8,4.2c-0.5,1.4-0.8,2.9-0.9,4.4
		c-0.1,1.4,0.1,2.5,0.4,3.4c0.3,0.9,0.8,1.6,1.4,2.1c0.6,0.5,1.3,0.8,2.1,1c0.8,0.2,1.6,0.2,2.4,0.1c2.1-0.3,4.3-0.9,6.7-1.8
		c2.4-0.9,4.4-1.8,6.2-2.8c0.5-0.3,0.9-0.4,1.1-0.1c0.3,0.2,0.1,0.5-0.4,0.8c-0.7,0.5-1.5,1.1-2.5,1.7c-1,0.6-2,1.2-3.2,1.8
		c-1.1,0.6-2.3,1.1-3.6,1.6c-1.2,0.5-2.4,0.8-3.6,1c-1,0.2-2,0.1-3.2-0.3c-1.1-0.4-2.2-1-3.2-1.9c-1-0.8-1.8-1.8-2.4-2.9
		c-0.6-1.1-0.9-2.3-0.9-3.6c0.2-3.5,1.2-7,2.9-10.5c1.8-3.5,3.9-6.8,6.4-9.8c2.5-3,5.2-5.6,7.9-7.8s5.3-3.7,7.5-4.6
		c1.2-0.4,2.3-0.3,3.2,0.1c1,0.5,1.7,1.2,2.2,2.1c0.5,0.9,0.9,2,1,3.1s-0.1,2.2-0.7,3.2c-1,1.8-2.7,3.3-5.2,4.5
		c-2.5,1.2-5.3,2.1-8.5,2.6c1.7,0,3.5,0,5.3,0c1.8,0,3.6,0,5.3,0c1.7,0,3.2-0.1,4.6-0.1c1.4-0.1,2.7-0.2,3.7-0.3
		c1.3-0.1,2.7-0.5,4.1-1.2c1.4-0.7,2.4-1.4,3.2-2.1c0.3-0.4,0.6-0.6,0.8-0.5c0.2,0.1,0.2,0.4-0.1,0.9C394.5,89,393.5,89.8,392,90.8z
		 M380.8,81.1c0.1-0.8-0.1-1.4-0.5-1.8c-0.4-0.4-0.9-0.6-1.7-0.6c-0.7,0-1.6,0.3-2.5,0.8c-2.4,1.3-4.7,3.1-7.2,5.3
		c-2.4,2.2-4.7,4.5-6.9,6.8c1.7,0,3.4-0.2,5.2-0.6c1.8-0.4,3.5-0.9,5.1-1.7c1.6-0.7,3-1.6,4.3-2.5c1.3-1,2.3-2,3.1-3.2
		C380.4,82.8,380.8,81.9,380.8,81.1z"/>
	<path class="st0" d="M405.6,108.2c-1.6,1.2-3.3,2.5-5.2,3.8c-1.9,1.3-3.8,2.5-5.7,3.7s-3.6,2-5,2.7c-0.4,0.1-1,0.1-1.8,0
		c-0.8-0.1-1.6-0.4-2.4-0.9c-0.8-0.5-1.5-1.1-2.1-1.9c-0.6-0.8-0.9-1.8-0.9-2.9c0-1,0.3-2.3,0.8-4c0.5-1.6,1.1-3.3,1.9-5.2
		s1.6-3.7,2.5-5.5c0.9-1.9,1.7-3.6,2.5-5.2c0.8-1.6,1.4-2.9,1.9-4c0.5-1.1,0.8-1.8,0.9-2.1c0.1-0.8,0.5-1.3,1.1-1.6
		c0.6-0.3,1.2-0.3,1.8-0.1c0.6,0.2,1,0.6,1.2,1.3c0.3,0.7,0.1,1.6-0.5,2.8c-2.2,4.1-3.8,7.2-5,9.4c-1.2,2.2-2,3.8-2.5,4.8
		c-0.5,1-0.8,1.6-0.9,1.9c-0.1,0.2-0.2,0.4-0.2,0.6c-0.1,0.2-0.2,0.5-0.4,1.1c-0.2,0.5-0.7,1.6-1.5,3.2c-0.8,1.6-1.2,2.8-1.2,3.7
		c0,0.9,0.2,1.5,0.6,1.9s1,0.6,1.7,0.5c0.7,0,1.3-0.1,2-0.2c1.2-0.3,2.7-0.9,4.5-1.8c1.8-1,3.7-2,5.6-3.2c1.9-1.2,3.7-2.4,5.3-3.6
		c1.7-1.2,2.9-2.2,3.8-3.1c0.6-0.6,1-0.9,1.2-1c0.3-0.1,0.4,0,0.4,0.2c0,0.2,0,0.5-0.2,0.9c-0.2,0.4-0.5,0.7-0.9,1.1
		C408.3,106,407.2,107,405.6,108.2z M400.4,79.5c-1.4,1.3-2.6,1.9-3.5,1.7c-1.4-0.3-2.1-0.8-2.1-1.6c0-0.9,0.7-2.1,2.2-3.5
		c1.5-1.5,2.6-2.4,3.5-2.6c0.7-0.1,1.4,0.1,2,0.6c0.6,0.5,0.8,1.1,0.6,1.7C402.9,76.8,402,78.1,400.4,79.5z"/>
	<path class="st0" d="M397,117.2c-0.1-0.5-0.1-0.9,0-1.2c0.1-0.4,0.4-1.2,1-2.2c0.9-1.7,2-3.6,3.4-5.8c1.4-2.1,3-4.5,4.9-7.2
		c1.8-2.7,3.5-4.9,5-6.8c1.5-1.8,2.7-3.3,3.7-4.3c0.4-0.3,0.9-0.6,1.6-0.9c0.7-0.3,1.2-0.3,1.5-0.1c0.3,0.2,0.1,0.5-0.4,0.9
		c-0.4,0.3-1.8,1.7-3.9,4.3c-2.5,2.9-4.7,6-6.6,9.5c-0.8,1.5-0.9,2.2-0.2,2.2c0.3,0,0.7-0.2,1.1-0.6c3.8-3.9,8.5-7.6,13.9-11
		c4-2.5,6.9-3.4,8.7-2.9c0.6,0.2,1,0.7,1,1.4c0,0.6-0.4,1.8-1.1,3.4c-0.7,1.7-1.8,3.9-3.2,6.6c-0.4,0.6-0.6,1.1-0.6,1.6
		c0,0.7,0.3,1,0.9,1c0.4,0,0.7-0.1,1-0.4c4.5-4,8.6-7.4,12.5-10.2c3.9-2.8,7.4-4.9,10.6-6.4c0.4-0.2,0.7-0.3,1.1-0.3
		c1.1,0,1.5,0.7,1.2,2c-0.3,0.3-0.5,0.6-0.8,0.9c-0.3,0.4-0.6,0.7-1,1.2c-1.3,2.8-2.8,5.8-4.4,8.9s-3.6,6.5-5.9,10.2
		c-0.6,0.9-1,1.7-1,2.3c0,0.5,0.2,0.8,0.7,0.8c0.3,0,0.5-0.1,0.8-0.2c0.3-0.1,0.6-0.3,1-0.4c4.7-2.2,10.6-4.4,17.7-6.6
		c5-1.5,9.5-2.7,13.6-3.6c4.1-0.9,7.8-1.4,11.2-1.6c2.7-0.1,5.2,0,7.4,0.3c2.2,0.4,4.2,1,5.9,2.1c3.5,2,5.3,4.6,5.3,7.5
		c0,0.9-0.1,1.7-0.4,2.5c-0.4,1.3-1.2,2.1-2.4,2.6c-0.5,0.3-0.9,0.5-1.2,0.5c-0.3,0-0.4-0.1-0.4-0.3c0-0.3,0.2-0.5,0.7-0.9
		c0.5-0.3,1-1.1,1.6-2.5c0.4-1.1,0.7-2,0.7-2.7c0-2.2-1.1-4.1-3.4-5.6c-2.4-1.7-5.8-2.5-10-2.5c-0.5,0-1.1,0-1.6,0
		c-0.6,0-1.1,0.1-1.7,0.1c-9.4,1-18.6,3.1-27.9,6.4c-9.7,3.4-17.9,7.6-24.3,12.6c-0.3,0.2-0.6,0.3-0.9,0.3c-0.8,0-1.1-0.4-1.1-1
		c0-0.3,0.1-0.5,0.3-0.7l2.3-2.3c-0.2-0.6-0.2-1.4,0.1-2.3c5.2-6.4,8.9-12.6,11.2-18.4c0.4-0.9,0.7-1.8,0.7-2.6
		c0-1.1-0.4-1.6-1.3-1.6c-0.5,0-1.1,0.3-1.9,0.9c-9.5,7.6-15.7,13.4-18.3,17.2c-0.1,0.1-0.4,0.3-0.7,0.6c-0.4,0.3-0.9,0.5-1.6,0.8
		c-0.8,0.4-1.5,0.7-2,0.9c-0.5,0.2-0.9,0.4-1.2,0.6c-0.4,0.2-0.8,0.1-1.2-0.4c-0.4-0.4-0.5-0.8-0.2-1.1c1.9-2.8,3.5-5.5,4.9-8.1
		c1.4-2.6,2.4-5.1,3.2-7.5c0.3-0.6,0.4-1.2,0.4-1.8c0-1.1-0.5-1.7-1.4-1.7c-0.3,0-0.7,0.1-1.2,0.3c-0.6,0.3-1.5,0.9-2.7,1.7
		c-1.1,0.8-2.5,1.9-4.2,3.4c-3.7,3.1-6.9,6.1-9.5,9.2c-0.7,0.8-1.5,1.7-2.4,2.9c-0.9,1.2-1.9,2.6-3,4.2c-0.2,0.3-1,0.7-2.3,1.2
		c-0.7,0.3-1.2,0.5-1.6,0.7s-0.6,0.4-0.8,0.5C397.2,117.6,397,117.5,397,117.2z"/>
	<path class="st0" d="M480.7,108.2c-1.6,1.2-3.3,2.5-5.2,3.8c-1.9,1.3-3.8,2.5-5.7,3.7s-3.6,2-5,2.7c-0.4,0.1-1,0.1-1.8,0
		c-0.8-0.1-1.6-0.4-2.4-0.9c-0.8-0.5-1.5-1.1-2.1-1.9c-0.6-0.8-0.9-1.8-0.9-2.9c0-1,0.3-2.3,0.8-4c0.5-1.6,1.1-3.3,1.9-5.2
		s1.6-3.7,2.5-5.5c0.9-1.9,1.7-3.6,2.5-5.2c0.8-1.6,1.4-2.9,1.9-4c0.5-1.1,0.8-1.8,0.9-2.1c0.1-0.8,0.5-1.3,1.1-1.6
		c0.6-0.3,1.2-0.3,1.8-0.1c0.6,0.2,1,0.6,1.2,1.3c0.3,0.7,0.1,1.6-0.5,2.8c-2.2,4.1-3.8,7.2-5,9.4c-1.2,2.2-2,3.8-2.5,4.8
		c-0.5,1-0.8,1.6-0.9,1.9c-0.1,0.2-0.2,0.4-0.2,0.6c-0.1,0.2-0.2,0.5-0.4,1.1c-0.2,0.5-0.7,1.6-1.5,3.2c-0.8,1.6-1.2,2.8-1.2,3.7
		c0,0.9,0.2,1.5,0.6,1.9s1,0.6,1.7,0.5c0.7,0,1.3-0.1,2-0.2c1.2-0.3,2.7-0.9,4.5-1.8c1.8-1,3.7-2,5.6-3.2c1.9-1.2,3.7-2.4,5.3-3.6
		c1.7-1.2,2.9-2.2,3.8-3.1c0.6-0.6,1-0.9,1.2-1c0.3-0.1,0.4,0,0.4,0.2c0,0.2,0,0.5-0.2,0.9c-0.2,0.4-0.5,0.7-0.9,1.1
		C483.5,106,482.3,107,480.7,108.2z M475.5,79.5c-1.4,1.3-2.6,1.9-3.5,1.7c-1.4-0.3-2.1-0.8-2.1-1.6c0-0.9,0.7-2.1,2.2-3.5
		c1.5-1.5,2.6-2.4,3.5-2.6c0.7-0.1,1.4,0.1,2,0.6c0.6,0.5,0.8,1.1,0.6,1.7C478,76.8,477.1,78.1,475.5,79.5z"/>
	<path class="st0" d="M483.1,96.4c0.9-3.6,2.1-7.2,3.7-10.9v-0.3c23.5-53.4,48.8-81,75.8-82.7C571.9,2,580,4.8,587,10.8
		c7.1,6,10.4,12.8,9.7,20.4c-0.3,2.5-1,4.8-2.1,7.1c-6,11.5-22.3,22.3-48.8,32.3c-9.1,3.5-18.3,6.6-27.6,9.2
		c-9.3,2.6-18.8,4.8-28.5,6.7c-1.1,3-2,6.1-2.7,9.4c-0.7,3.3-1.1,6.2-1.2,8.8c-0.1,3,0.3,5.2,1.3,6.5c1,1.3,2.2,2.1,3.7,2.3
		c1.5,0.2,3.1-0.1,4.9-0.8c1.8-0.7,3.4-1.7,4.9-2.8c0.8-0.6,1.6-1.3,2.2-2c0.7-0.7,1.4-1.4,2.1-2.1c0.5-0.5,0.9-0.7,1.1-0.6
		c0.2,0.1,0.1,0.5-0.4,1.2c-0.5,0.6-1.2,1.4-2,2.2c-0.8,0.8-1.5,1.6-2.2,2.2c-2.2,2-4.5,3.4-6.8,4.4c-2.3,1-4.4,1.3-6.2,1.1
		c-1.8-0.3-3.4-1.1-4.6-2.6c-1.2-1.5-1.8-3.7-1.9-6.7C481.8,103.5,482.2,100,483.1,96.4z M593.7,32.8c0.3-1,0.4-2,0.6-3.1
		c0.7-6.7-2.1-12.7-8.5-17.9c-6.4-5.3-14.1-7.9-23.2-7.5c-15.4,0.7-31,12.2-46.9,34.6c-4.8,6.7-9.3,13.7-13.4,21.1
		c-4.1,7.4-7.9,15.1-11.4,23.2h0.1c-0.1,0.3-0.3,0.6-0.4,1c-0.1,0.3-0.3,0.6-0.5,1c11.6-2.4,22.6-5.2,32.9-8.3
		c10.3-3.1,20-6.7,29.1-10.7c21.6-9.5,35.1-19.6,40.4-30.3C593.1,34.7,593.5,33.7,593.7,32.8z"/>
	<path class="st0" d="M525,108.2c-1.6,1.2-3.3,2.5-5.2,3.8c-1.9,1.3-3.8,2.5-5.7,3.7s-3.6,2-5,2.7c-0.4,0.1-1,0.1-1.8,0
		c-0.8-0.1-1.6-0.4-2.4-0.9c-0.8-0.5-1.5-1.1-2.1-1.9c-0.6-0.8-0.9-1.8-0.9-2.9c0-1,0.3-2.3,0.8-4c0.5-1.6,1.1-3.3,1.9-5.2
		s1.6-3.7,2.5-5.5c0.9-1.9,1.7-3.6,2.5-5.2c0.8-1.6,1.4-2.9,1.9-4c0.5-1.1,0.8-1.8,0.9-2.1c0.1-0.8,0.5-1.3,1.1-1.6
		c0.6-0.3,1.2-0.3,1.8-0.1c0.6,0.2,1,0.6,1.2,1.3c0.3,0.7,0.1,1.6-0.5,2.8c-2.2,4.1-3.8,7.2-5,9.4c-1.2,2.2-2,3.8-2.5,4.8
		c-0.5,1-0.8,1.6-0.9,1.9c-0.1,0.2-0.2,0.4-0.2,0.6c-0.1,0.2-0.2,0.5-0.4,1.1c-0.2,0.5-0.7,1.6-1.5,3.2c-0.8,1.6-1.2,2.8-1.2,3.7
		c0,0.9,0.2,1.5,0.6,1.9s1,0.6,1.7,0.5c0.7,0,1.3-0.1,2-0.2c1.2-0.3,2.7-0.9,4.5-1.8c1.8-1,3.7-2,5.6-3.2c1.9-1.2,3.7-2.4,5.3-3.6
		c1.7-1.2,2.9-2.2,3.8-3.1c0.6-0.6,1-0.9,1.2-1c0.3-0.1,0.4,0,0.4,0.2c0,0.2,0,0.5-0.2,0.9c-0.2,0.4-0.5,0.7-0.9,1.1
		C527.8,106,526.6,107,525,108.2z M519.8,79.5c-1.4,1.3-2.6,1.9-3.5,1.7c-1.4-0.3-2.1-0.8-2.1-1.6c0-0.9,0.7-2.1,2.2-3.5
		c1.5-1.5,2.6-2.4,3.5-2.6c0.7-0.1,1.4,0.1,2,0.6c0.6,0.5,0.8,1.1,0.6,1.7C522.3,76.8,521.4,78.1,519.8,79.5z"/>
	<path class="st0" d="M555.9,66c-0.9-0.7-1.7-1.3-2.3-1.7c-0.6-0.4-1.2-0.7-1.7-0.9c-1.1-0.3-2.2-0.4-3.3-0.3
		c-1.1,0.1-2.1,0.3-3,0.6c-0.9,0.3-1.3,0.4-1.3,0.1c0-0.2,0.3-0.6,0.8-1c0.4-0.3,1-0.5,1.6-0.9c0.6-0.3,1.3-0.6,2-0.9
		c0.7-0.3,1.3-0.4,2-0.6c0.7-0.1,1.3-0.1,1.9,0c0.3,0.1,0.7,0.3,1.1,0.6c0.4,0.3,0.9,0.5,1.4,0.9c-0.5-5.7-2.1-10.6-4.8-14.7
		c-0.8-1.1-1-1.8-0.6-2.1c1.3,1.1,2.4,2.4,3.2,3.9c0.9,1.4,1.6,3,2.2,4.6c0.6,1.7,1.1,3.4,1.5,5.2c0.4,1.8,0.8,3.6,1.2,5.5
		c0.7,0.6,1.4,1.1,2.1,1.6c0.7,0.5,1.4,0.8,2.1,1.1c1.4,0.4,2.4,0.7,3.1,0.7c0.6,0,1.4-0.3,2.4-0.8c0.7-0.4,1.1-0.4,1.3-0.1
		c0.2,0.3-0.1,0.7-0.9,1.1c-0.8,0.5-1.9,1-3.2,1.6c-1.3,0.5-2.5,0.6-3.5,0.2c-0.9-0.2-1.9-0.7-3-1.6c0.3,2.9,0.5,5.8,0.4,8.9
		c0,3.1-0.3,6.3-0.7,9.8c-0.4,6.2-1.6,11.5-3.6,16c-1.9,4.5-4.5,8.1-7.8,10.8c-4.5,3.7-9.1,4-14,1.1c-1.3-1.1-2.6-2.2-3.8-3.2
		c-2.8-3.2-4.7-7.4-5.6-12.7c-0.5-2.4-0.7-4.6-0.7-6.5c0.1-1.9,0.3-3.7,0.9-5.4c0.9-4.5,2.8-7.9,5.7-10.1c3.6-3.4,7.4-3.7,11.6-1
		c0.4,0.2,0.8,0.5,1.3,0.9s1,0.9,1.5,1.4c1.7,2,3.3,4.4,4.8,7.1c1.5,2.7,2.8,5.7,4,9c2.5-7.6,3.6-15.4,3.4-23.3L555.9,66z
		 M530.8,81.9c-1,0.8-1.8,1.6-2.4,2.5c-0.7,0.9-1.3,2-1.8,3.2c-0.7,1.8-1.2,3.7-1.4,5.7c-0.2,2-0.1,4.2,0.4,6.4
		c0.5,2.2,1.1,4.1,1.8,5.9c0.7,1.8,1.6,3.4,2.9,4.8c0.8,1,1.7,1.7,2.6,2.2c0.9,0.5,1.8,0.9,2.7,1c2.5,0.4,5.1-0.6,7.6-3
		c4.9-3.8,7.8-8.8,8.8-15c-1.5-4.3-3.8-8.3-7.1-11.9c-0.9-1.1-1.8-2-2.6-2.7c-0.8-0.7-1.7-1.3-2.6-1.6
		C537.1,78.4,534.1,79.2,530.8,81.9z"/>
</g>
</svg>
