<?xml version="1.0" encoding="iso-8859-1"?>
<!-- Generator: Adobe Illustrator 16.0.0, SVG Export Plug-In . SVG Version: 6.00 Build 0)  -->
<!DOCTYPE svg PUBLIC "-//W3C//DTD SVG 1.1//EN" "http://www.w3.org/Graphics/SVG/1.1/DTD/svg11.dtd">
<svg version="1.1" id="Capa_1" xmlns="http://www.w3.org/2000/svg" xmlns:xlink="http://www.w3.org/1999/xlink" x="0px" y="0px"
	 width="554.625px" height="554.625px" viewBox="0 0 554.625 554.625" style="enable-background:new 0 0 554.625 554.625;"
	 xml:space="preserve">
<g>
	<g id="iconos_64_">
		<polygon  style="fill:#e56f3c;"  points="403.873,173.053 354.521,185.015 344.949,251.608 418.045,553.344 510.982,530.834 437.552,227.683 		"/>
		<path style="fill:#e56f3c;" d="M275.64,46.694l-55.759,13.512l20.263,83.643l55.759-13.512l-4.504-18.589l37.179-9.008l13.512,55.759l65.054-15.759
			l-8.798-36.299c-4.294-17.72,22.769-29.137,38.527-32.953c25.006-6.053,48.559,2.725,63.82,8.013
			c15.271,5.298,21.669-17.241,6.809-29.118c-14.296-11.427-71.537-44.523-129.63-30.457
			c-58.082,14.066-65.054,15.759-65.054,15.759l4.505,18.59l-37.18,9.008L275.64,46.694z"/>
		<polygon  style="fill:#e56f3c;"  points="115.2,153 106.431,153 96.075,153 96.075,138.656 96.075,100.406 96.075,95.625 105.638,95.625 106.431,95.625 
			115.2,95.625 115.2,0 38.7,0 38.7,554.625 115.2,554.625 		"/>
		<polygon  style="fill:#e56f3c;"  points="163.013,162.562 182.138,162.562 182.138,153 182.138,143.438 182.138,138.656 182.138,100.406 182.138,95.625 
			182.138,86.062 163.013,86.062 163.013,95.625 163.013,105.188 115.2,105.188 105.638,105.188 105.638,143.438 115.2,143.438 
			163.013,143.438 163.013,153 		"/>
	</g>
</g>
<g>
</g>
<g>
</g>
<g>
</g>
<g>
</g>
<g>
</g>
<g>
</g>
<g>
</g>
<g>
</g>
<g>
</g>
<g>
</g>
<g>
</g>
<g>
</g>
<g>
</g>
<g>
</g>
<g>
</g>
</svg>
